<svg
    xmlns="http://www.w3.org/2000/svg"
    xmlns:xlink="http://www.w3.org/1999/xlink"
    id="chapter2-ShapesPatternsGroupsUse"
    version="1.1"
    width="800" height="600"
    viewBox="0 0 400 300" preserveAspectRatio="none">
    <defs>
        <!-- Begin Example -->
        <pattern id="gridPatternWithTessellation" x="20" y="20" width="100" height="100"
        patternUnits="userSpaceOnUse">
            <!-- Draw the lines. -->
            <line stroke="black" stroke-width="1" stroke-linecap="round" stroke-
                linejoin="round"
                stroke-miterlimit="4" stroke-opacity="0.4" stroke-dasharray="1, 6"
                stroke-dashoffset="0"
                x1="90" y1="10" x2="10" y2="90"
                id="patternLine1" />
            <!-- Reuse the first line, rotate it 90 degrees, and update the style attributes. -->
            <!-- For appendix or wiki - note that currently most browsers do not support styling of Use elements using either CSS or SVG attributes -->
            <use stroke-opacity="1"
                transform="rotate(90, 50, 50)"
                xlink:href="#patternLine1"
                id="patternLine2" />
            <!-- Draw the upper-right rectangle. -->
            <rect fill="#ada9" fill-opacity="1" fill-rule="nonzero" stroke="#32287d"
                stroke-width="8" stroke-linecap="butt" stroke-linejoin="bevel"
                stroke-miterlimit="4" stroke-opacity="0.4"
                id="patternRect-upperRight"
                width="20"
                height="20"
                x="90"
                y="-10" />
            <!-- Reuse the first rectangle element and rotate it 90 degrees each time. -->
            <use transform="rotate(90, 50, 50)"
                xlink:href="#patternRect-upperRight"
                id="patternRect-lowerRight" />
            <use transform="rotate(180, 50, 50)"
                xlink:href="#patternRect-upperRight"
                id="patternRect-lowerLeft" />
            <use transform="rotate(270, 50, 50)"
                xlink:href="#patternRect-upperRight"
                id="patternRect-upperLeft" />
            <!-- Group containing the eye. -->
            <g id="eye">
                <!-- Draw the ellipse. -->
                <ellipse fill="#a1d9ad" fill-opacity="0.7" fill-rule="nonzero"
                    stroke="#32287d" stroke-width="1" stroke-opacity="0.5"
                    cx="50" cy="50" rx="22" ry="14" />
                <!-- Group containing the eye's iris. -->
                <g id="iris">
                    id="path3389"
                    cx="50" cy="50" rx="20" ry="14" />
                <!-- Draw the circle. -->
                    <circle fill="black" fill-opacity="1" fill-rule="nonzero" stroke="#32287d"
                        stroke-width="1" stroke-linecap="butt" stroke-linejoin="bevel"
                        stroke-miterlimit="4"
                        id="path3395"
                        cx="50" cy="50" r="10" />
                    <!-- Reference the bitmap image (PNG) -->
                    <image id="bitmapCentralBall"
                        width="5.5%" height="5.5%"
                        x="39px" y="42px"
                        xlink:href="http://www.pngall.com/wp-content/uploads/1/World.png"
                        alt="World" />
                </g>
            </g>
            <!-- Draw the path using "relative" coordinates via lowercase path commands. Note that we can easily switch to using the Polyline element by changing the "d" attribute to "points". -->
            <path fill="none" stroke="black" stroke-width="1px" stroke-linecap="butt"
                stroke-linejoin="miter" stroke-opacity="1"
                d="M 0,50 s 10,0 0,20 C 20,20 0,0 0,0"
                id="patternPath-lowerLeft" />
            <!-- Other interesting paths
                MoveTo Polyline-like d="m 0,50 10,0 0,20 20,20 0,0 0,0 20,0 0,10"
                Quadratic d="M 0,50 Q 10,0 0,20 S 20,20 0,0"
                Smooth Quadratic d="M 0,50 S 10,0 0,20 Q 20,20 0,0"
                Cubic d="M 0,50 C 10,0 0,20 20,20 S 0,0 0,0"
                Smooth Quadratic & Cubic d="M 0,50 s 10,0 0,20 C 20,20 0,0 0,0" -->
            -->
            <!-- Reuse the first path, rotate it 90 more degrees for each of the four corners. -->
            <use
                transform="rotate(90, 50, 50)"
                xlink:href="#patternPath-lowerLeft"
                id="patternPath-upperLeft" />
            <use
                transform="rotate(180, 50, 50)"
                xlink:href="#patternPath-lowerLeft"
                id="patternPath-upperRight" />
            <use
                transform="rotate(270, 50, 50)"
                xlink:href="#patternPath-lowerLeft"
                id="patternPath-lowerRight" />
            </pattern>
            </g>

            <pattern id="gridPattern" width="10" height="10" patternUnits="userSpaceOnUse">
            <path d="M10 0 L0 0 L0 10" fill='none' stroke='gray' stroke-width='0.25'/>
        </pattern>
    </defs>

    <g id="layer1">
        <!-- background grid -->
        <rect id="grid" width="100%" height="100%" x="0" y="0"
            stroke='gray' stroke-width='0.25' fill='url(#gridPattern)'/>
        <!-- grid illustrations -->
        <use xlink:href="#coords"/>
        <text x="3" y="9" font-size='8'>(0,0) 10px 10px</text>
        <!-- Begin Example -->
        <rect id="gridWithTessellation" width="300" height="300" x="20" y="20"
            fill='url(#gridPatternWithTessellation)' />
    </g>

    <rect id="gridWithTessellation"
        x="20" y="20" width="300" height="300"
        fill='url(#gridPatternWithTessellation)' />
</svg>
 

